<svg width="220" height="56" viewBox="0 0 220 56" fill="none" xmlns="http://www.w3.org/2000/svg">
  <rect width="56" height="56" rx="16" fill="#F2F8E7"/>
  <path d="M28 11C21.3726 11 16 16.3726 16 23V34.5C16 35.8807 17.1193 37 18.5 37H37.5C38.8807 37 40 35.8807 40 34.5V23C40 16.3726 34.6274 11 28 11Z" fill="#77B81E"/>
  <path d="M28 14C23.3056 14 19.5 17.8056 19.5 22.5V33H36.5V22.5C36.5 17.8056 32.6944 14 28 14Z" fill="white"/>
  <path d="M28.0001 17C25.3001 19.2667 24.1418 21.9222 24.5258 24.9667C26.8783 24.7444 28.5449 23.4778 29.5258 21.1667C30.1456 19.7667 29.637 18.3778 28.0001 17Z" fill="#77B81E"/>
  <rect x="22" y="28" width="12" height="2.8" rx="1.4" fill="#DCECC1"/>
  <circle cx="28" cy="23" r="1.9" fill="#DCECC1"/>
  <path d="M78.2188 37V18.5273H86.0547C87.8672 18.5273 89.4219 18.8828 90.7188 19.5938C92.0156 20.3047 93.0078 21.3047 93.6953 22.5938C94.3906 23.875 94.7383 25.3711 94.7383 27.082C94.7383 28.8008 94.3867 30.3047 93.6836 31.5938C92.9883 32.875 91.9844 33.8711 90.6719 34.582C89.3672 35.293 87.7969 35.6484 85.9609 35.6484H80.6211V31.8164H85.1836C86.1992 31.8164 87.043 31.6406 87.7148 31.2891C88.3867 30.9297 88.8867 30.4258 89.2148 29.7773C89.543 29.1289 89.707 28.2305 89.707 27.082C89.707 25.9336 89.543 25.0391 89.2148 24.3984C88.8867 23.75 88.3828 23.2539 87.7031 22.9102C87.0312 22.5586 86.1836 22.3828 85.1602 22.3828H82.957V37H78.2188Z" fill="#203016"/>
  <path d="M104.707 37.293C103.262 37.293 102.016 37.0156 100.969 36.4609C99.9297 35.9062 99.1289 35.1328 98.5664 34.1406C98.0039 33.1406 97.7227 31.9805 97.7227 30.6602C97.7227 29.3477 98 28.1875 98.5547 27.1797C99.1094 26.1719 99.8867 25.3867 100.887 24.8242C101.895 24.2617 103.07 23.9805 104.414 23.9805C105.32 23.9805 106.16 24.125 106.934 24.4141C107.715 24.6953 108.395 25.1211 108.973 25.6914C109.551 26.2617 110 26.9766 110.32 27.8359C110.641 28.6875 110.801 29.6875 110.801 30.8359V32.0469H99.5078V29.3516H106.789C106.789 28.7266 106.652 28.1758 106.379 27.6992C106.105 27.2227 105.727 26.8516 105.25 26.5859C104.781 26.3125 104.234 26.1758 103.609 26.1758C102.961 26.1758 102.387 26.3281 101.887 26.6328C101.395 26.9297 101.008 27.332 100.723 27.8398C100.445 28.3477 100.301 28.9141 100.289 29.5391V32.0586C100.289 32.832 100.434 33.5 100.723 34.0625C101.02 34.625 101.434 35.0586 101.969 35.3633C102.504 35.668 103.133 35.8203 103.859 35.8203C104.344 35.8203 104.785 35.7539 105.18 35.6211C105.574 35.4805 105.91 35.2773 106.191 35.0117C106.473 34.7461 106.684 34.418 106.824 34.0273L110.637 34.2773C110.449 35.168 110.063 35.9453 109.48 36.6094C108.906 37.2656 108.164 37.7773 107.254 38.1445C106.352 38.5117 105.5 37.293 104.707 37.293Z" fill="#203016"/>
  <path d="M118.199 18.5273V37H113.695V18.5273H118.199Z" fill="#203016"/>
  <path d="M127.82 37.293C126.43 37.293 125.172 36.9883 124.047 36.3789C122.93 35.7617 122.043 34.9648 121.387 33.9883C120.738 33.0039 120.414 31.9492 120.414 30.8242C120.414 29.6836 120.742 28.6211 121.398 27.6367C122.055 26.6523 122.949 25.8555 124.082 25.2461C125.215 24.6289 126.488 24.3203 127.902 24.3203C129.309 24.3203 130.578 24.6289 131.711 25.2461C132.844 25.8555 133.738 26.6523 134.395 27.6367C135.051 28.6211 135.379 29.6836 135.379 30.8242C135.379 31.9492 135.047 33.0039 134.383 33.9883C133.727 34.9648 132.832 35.7617 131.699 36.3789C130.574 36.9883 129.281 37.293 127.82 37.293ZM127.844 34.1016C128.477 34.1016 129.004 33.9219 129.426 33.5625C129.848 33.1953 130.164 32.6953 130.375 32.0625C130.594 31.4297 130.703 30.707 130.703 29.8945C130.703 29.082 130.594 28.3594 130.375 27.7266C130.164 27.0938 129.848 26.5938 129.426 26.2266C129.004 25.8594 128.477 25.6758 127.844 25.6758C127.203 25.6758 126.664 25.8594 126.227 26.2266C125.797 26.5938 125.473 27.0938 125.25 27.7266C125.035 28.3594 124.926 29.082 124.926 29.8945C124.926 30.707 125.035 31.4297 125.25 32.0625C125.473 32.6953 125.797 33.1953 126.227 33.5625C126.664 33.9219 127.203 34.1016 127.844 34.1016Z" fill="#203016"/>
  <path d="M142.703 42.1602C142.109 42.1602 141.539 42.1133 140.992 42.0195C140.453 41.9336 140 41.8203 139.633 41.6797L140.645 38.3125C141.113 38.4609 141.531 38.543 141.898 38.5586C142.273 38.5742 142.594 38.4883 142.863 38.3008C143.137 38.1133 143.359 37.7969 143.531 37.3516L143.766 36.7383L138.789 24.5078H143.496L146.039 32.5547H146.18L148.746 24.5078H153.488L148.121 39.7812C147.863 40.5312 147.512 41.1836 147.066 41.7383C146.621 42.293 146.07 42.7227 145.414 43.0273C144.758 43.332 143.855 42.1602 142.703 42.1602Z" fill="#203016"/>
  <path d="M170.059 37L164.742 18.5273H169.902L172.984 31.4297H173.148L176.523 18.5273H180.941L184.316 31.4531H184.492L187.574 18.5273H192.734L187.418 37H182.816L178.84 25.1289H178.676L174.699 37H170.059Z" fill="#203016"/>
  <path d="M198.855 37.293C197.965 37.293 197.172 37.1406 196.477 36.8359C195.781 36.5234 195.23 36.0625 194.824 35.4531C194.426 34.8359 194.227 34.0703 194.227 33.1562C194.227 32.3906 194.367 31.7461 194.648 31.2227C194.93 30.6992 195.312 30.2773 195.797 29.957C196.281 29.6367 196.832 29.3945 197.453 29.2305C198.082 29.0664 198.746 28.9492 199.445 28.8789C200.266 28.793 200.926 28.7109 201.426 28.6328C201.926 28.5469 202.289 28.4219 202.52 28.2578C202.75 28.0938 202.867 27.8516 202.867 27.5312V27.4727C202.867 26.8477 202.672 26.3633 202.285 26.0195C201.906 25.6758 201.367 25.5039 200.668 25.5039C199.93 25.5039 199.344 25.668 198.91 25.9961C198.477 26.3164 198.191 26.7227 198.051 27.2148L193.875 26.8789C194.086 25.8945 194.5 25.043 195.121 24.3242C195.742 23.5977 196.543 23.0391 197.523 22.6484C198.512 22.25 199.656 22.0508 200.957 22.0508C201.863 22.0508 202.73 22.1562 203.559 22.3672C204.395 22.5781 205.137 22.9062 205.785 23.3516C206.441 23.7969 206.961 24.3711 207.348 25.0742C207.734 25.7695 207.926 26.6055 207.926 27.582V37H203.633V35.0625H203.516C203.25 35.5781 202.895 36.0312 202.449 36.4219C202.004 36.8047 201.469 37.1055 200.844 37.3242C200.219 37.543 199.555 37.293 198.855 37.293ZM200.148 34.1719C200.766 34.1719 201.312 34.0508 201.781 33.8086C202.25 33.5586 202.617 33.2227 202.883 32.8008C203.148 32.3789 203.281 31.8984 203.281 31.3594V29.875C203.141 29.9688 202.949 30.0547 202.707 30.1328C202.473 30.2031 202.207 30.2695 201.906 30.332C201.605 30.3867 201.305 30.4375 201.004 30.4844C200.703 30.5234 200.43 30.5586 200.184 30.5898C199.656 30.668 199.195 30.793 198.797 30.9648C198.398 31.1367 198.09 31.3711 197.875 31.668C197.66 31.957 197.551 32.3203 197.551 32.7578C197.551 33.3906 197.781 33.875 198.242 34.2109C198.711 34.5391 199.348 34.1719 200.148 34.1719Z" fill="#203016"/>
  <path d="M215.137 37V24.5078H219.5V26.668H219.641C219.867 25.9023 220.246 25.3242 220.781 24.9336C221.316 24.5352 221.934 24.3359 222.633 24.3359C222.805 24.3359 222.992 24.3477 223.195 24.3711C223.398 24.3945 223.574 24.4258 223.723 24.4648V28.457C223.566 28.4102 223.348 28.3672 223.066 28.3281C222.785 28.2891 222.527 28.2695 222.293 28.2695C221.785 28.2695 221.332 28.3789 220.934 28.5977C220.543 28.8086 220.234 29.1055 220.008 29.4883C219.789 29.8711 219.68 30.3125 219.68 30.8125V37H215.137Z" fill="#203016"/>
</svg>
